<svg width="25" height="25" viewBox="0 0 25 25" fill="none" xmlns="http://www.w3.org/2000/svg">
<path d="M22.4303 6.23045C22.4461 6.50387 22.4461 6.77735 22.4461 7.05078C22.4461 15.3906 17.2907 25 7.86805 25C4.96511 25 2.26842 23.9648 0 22.168C0.412453 22.2266 0.808988 22.2461 1.23731 22.2461C3.63258 22.2461 5.83757 21.25 7.59837 19.5508C5.34582 19.4922 3.45812 17.6758 2.80773 15.1758C3.12501 15.2343 3.44225 15.2734 3.77541 15.2734C4.23542 15.2734 4.69548 15.1953 5.12375 15.0586C2.77604 14.4726 1.01519 11.9336 1.01519 8.86718V8.78908C1.69727 9.25783 2.49049 9.5508 3.33117 9.58982C1.95108 8.45698 1.04693 6.52341 1.04693 4.33589C1.04693 3.16404 1.30069 2.08982 1.74488 1.15231C4.26711 4.98044 8.05838 7.48039 12.3096 7.75388C12.2303 7.28513 12.1827 6.79689 12.1827 6.3086C12.1827 2.832 14.467 0 17.3065 0C18.7817 0 20.1142 0.761717 21.0501 1.99219C22.2081 1.71876 23.3185 1.19139 24.302 0.468753C23.9213 1.93363 23.1123 3.1641 22.0495 3.9453C23.0806 3.80864 24.08 3.457 25 2.96877C24.3021 4.21872 23.4296 5.33196 22.4303 6.23045Z" fill="#0C1149"/>
</svg>
