<svg width="932" height="990" fill="none" xmlns="http://www.w3.org/2000/svg"><g clip-path="url(#clip0)"><path fill-rule="evenodd" clip-rule="evenodd" d="M1264.02 279.514c69.6 95.054 114.98 210.23 114.63 328.035-.35 117.805-49.74 237.405-141.72 311.088-91.98 73.683-227.07 94.703-331.898 40.88-118.09-60.623-178.82-197.186-290.03-269.63-86.26-56.184-194.453-67.952-297.235-61.779-46.837 2.813-93.732 9.012-140.518 5.472s-94.612-17.976-128.238-50.674C11.833 546.754-3.335 491.981.622 440.281c8.313-108.637 87.52-223.362 185.522-270.093 192.612-91.846 373.9-188.964 594.2-167.079 191.468 19.028 370.076 121.259 483.676 276.405z" fill="#F2CE94"/><g clip-path="url(#clip1)"><path fill-rule="evenodd" clip-rule="evenodd" d="M458.308 588.914c-11.507-5.243-23.234-11.156-33.787-19.529a72.442 72.442 0 01-13.985-14.609 74.995 74.995 0 01-9.14-17.391 108.105 108.105 0 01-5.924-26c-.683-6.78-.583-11.566-.062-14.153 1.116-5.222 3.811-1.428 8.33 12.793 1.316 4.127 3.133 10.054 5.3 15.362a82.215 82.215 0 0012.008 21.436c4.966 6.253 11.328 11.411 18.184 15.968a136.609 136.609 0 0020.608 10.968c3.619 1.652 7.233 3.333 10.977 4.761 3.718 1.482 7.422 3.007 11.242 4.293a474.269 474.269 0 0046.86 13.694c34.99 8.551 70.99 15.738 106.05 27.806a392.499 392.499 0 01118.69 66.673 331.147 331.147 0 0152.41 54.773 388.833 388.833 0 0136.58 57.563c10.53 19.88 20.03 39.85 30.99 58.575a283.706 283.706 0 0017.03 26.017 175.17 175.17 0 0020.07 22.728c14.59 13.837 31.6 24.877 50.27 30.607 5.62 1.91 13.23 2.9 16.91 3.78 4.75 1.13 8.63 2.23 8.86 3.3.08.37-1.38.85-3.53 1.38-1.08.26-2.33.53-3.64.79-1.3.21-2.67.27-3.97.37-5.43.58-12.97-.49-19.47-1.99-17.35-4.42-33.3-13.22-47.08-24.32a176.077 176.077 0 01-19.32-18.2 198.489 198.489 0 01-16.36-20.808c-20.08-28.989-33.93-61.163-51.29-90.675a352.985 352.985 0 00-109.718-115.632 352.917 352.917 0 00-71.1-36.461c-25.03-9.267-51.14-15.9-77.55-22.216-35.12-8.561-71.07-16.914-105.443-31.653z" fill="#fff"/></g></g><defs><clipPath id="clip0"><path fill="#fff" d="M0 0h931.062v989.688H0z"/></clipPath><clipPath id="clip1"><path fill="#fff" transform="translate(395 495)" d="M0 0h536.281v456.034H0z"/></clipPath></defs></svg>