<svg xmlns="http://www.w3.org/2000/svg" width="92" height="179"><path d="M101.59 8.8A4.4 4.4 0 11106 4.4a4.4 4.4 0 01-4.41 4.4zm0 42.551a4.4 4.4 0 114.41-4.4 4.4 4.4 0 01-4.41 4.395zm0 42.551a4.4 4.4 0 114.41-4.4 4.4 4.4 0 01-4.41 4.398zm0 42.552a4.4 4.4 0 114.41-4.4 4.4 4.4 0 01-4.41 4.395zm0 42.551a4.4 4.4 0 114.41-4.4 4.4 4.4 0 01-4.41 4.395zM69.2 8.8a4.4 4.4 0 114.4-4.4 4.4 4.4 0 01-4.4 4.4zm0 42.551a4.4 4.4 0 114.4-4.4 4.4 4.4 0 01-4.4 4.395zm0 42.551a4.4 4.4 0 114.4-4.4 4.4 4.4 0 01-4.4 4.398zm0 42.552a4.4 4.4 0 114.4-4.4 4.4 4.4 0 01-4.4 4.395zm0 42.551a4.4 4.4 0 114.4-4.4A4.4 4.4 0 0169.2 179zM36.8 8.805a4.4 4.4 0 114.41-4.4A4.4 4.4 0 0136.8 8.8zm0 42.551a4.4 4.4 0 114.41-4.4 4.4 4.4 0 01-4.41 4.39zm0 42.551a4.4 4.4 0 114.41-4.4A4.4 4.4 0 0136.8 93.9zm0 42.552a4.4 4.4 0 114.41-4.4 4.4 4.4 0 01-4.41 4.39zm0 42.551a4.4 4.4 0 114.41-4.4A4.4 4.4 0 0136.8 179zM4.41 8.81a4.4 4.4 0 114.4-4.4 4.4 4.4 0 01-4.4 4.39zm0 42.551a4.4 4.4 0 114.4-4.4 4.4 4.4 0 01-4.4 4.385zm0 42.551a4.4 4.4 0 114.4-4.4 4.4 4.4 0 01-4.4 4.388zm0 42.552a4.4 4.4 0 114.4-4.4 4.4 4.4 0 01-4.4 4.385zm0 42.551a4.4 4.4 0 114.4-4.4A4.4 4.4 0 014.41 179z" fill="#fff" fill-rule="evenodd"/></svg>