<svg xmlns="http://www.w3.org/2000/svg" width="179" height="106"><path d="M170.205 101.592A4.4 4.4 0 11174.6 106a4.4 4.4 0 01-4.395-4.408zm-42.551 0a4.4 4.4 0 114.4 4.406 4.4 4.4 0 01-4.4-4.406zm-42.551 0A4.4 4.4 0 1189.5 106a4.4 4.4 0 01-4.4-4.408zm-42.552 0a4.4 4.4 0 114.4 4.406 4.4 4.4 0 01-4.4-4.406zm-42.551 0A4.4 4.4 0 114.4 106a4.4 4.4 0 01-4.4-4.408zM170.205 69.2a4.4 4.4 0 114.4 4.406 4.4 4.4 0 01-4.4-4.406zm-42.551 0a4.4 4.4 0 114.4 4.406 4.4 4.4 0 01-4.4-4.406zm-42.551 0a4.4 4.4 0 114.4 4.406A4.4 4.4 0 0185.1 69.2zm-42.552 0a4.4 4.4 0 114.4 4.406 4.4 4.4 0 01-4.4-4.406zM0 69.2a4.4 4.4 0 114.4 4.406A4.4 4.4 0 010 69.2zm170.205-32.4a4.4 4.4 0 114.4 4.406 4.4 4.4 0 01-4.4-4.406zm-42.551 0a4.4 4.4 0 114.4 4.406 4.4 4.4 0 01-4.4-4.406zm-42.551 0a4.4 4.4 0 114.4 4.406A4.4 4.4 0 0185.1 36.8zm-42.552 0a4.4 4.4 0 114.4 4.406 4.4 4.4 0 01-4.4-4.406zM0 36.8a4.4 4.4 0 114.4 4.406A4.4 4.4 0 010 36.8zM170.205 4.4a4.4 4.4 0 114.4 4.406 4.4 4.4 0 01-4.4-4.401zm-42.551 0a4.4 4.4 0 114.4 4.406 4.4 4.4 0 01-4.4-4.401zm-42.551 0a4.4 4.4 0 114.4 4.406A4.4 4.4 0 0185.1 4.405zm-42.552 0a4.4 4.4 0 114.4 4.406 4.4 4.4 0 01-4.4-4.401zM0 4.4a4.4 4.4 0 114.4 4.406A4.4 4.4 0 010 4.405z" fill="#fff" fill-rule="evenodd"/></svg>