<svg width="30" height="25" viewBox="0 0 30 25" fill="none" xmlns="http://www.w3.org/2000/svg">
<path d="M29.3731 3.91165C29.0281 2.37194 28.0115 1.15931 26.7208 0.747786C24.3813 0 15 0 15 0C15 0 5.61879 0 3.27919 0.747786C1.98847 1.15937 0.971904 2.37194 0.626879 3.91165C0 6.70247 0 12.5253 0 12.5253C0 12.5253 0 18.348 0.626879 21.1389C0.971904 22.6786 1.98847 23.8407 3.27919 24.2522C5.61879 25 15 25 15 25C15 25 24.3812 25 26.7208 24.2522C28.0115 23.8407 29.0281 22.6786 29.3731 21.1389C30 18.348 30 12.5253 30 12.5253C30 12.5253 30 6.70247 29.3731 3.91165ZM11.9318 17.8119V7.23861L19.7727 12.5254L11.9318 17.8119Z" fill="#0C1149"/>
</svg>
