<?xml version="1.0" encoding="utf-8"?>
<!-- Generator: Adobe Illustrator 24.2.0, SVG Export Plug-In . SVG Version: 6.00 Build 0)  -->
<svg version="1.1" id="Layer_1" xmlns="http://www.w3.org/2000/svg" xmlns:xlink="http://www.w3.org/1999/xlink" x="0px" y="0px"
	 viewBox="0 0 100 100" style="enable-background:new 0 0 100 100;" xml:space="preserve">
<style type="text/css">
	.st0{fill:#6F8CAA;}
</style>
<path class="st0" d="M50,100.6c-27.6,0-50-22.4-50-50s22.4-50,50-50s50,22.4,50,50S77.6,100.6,50,100.6z M50,5.5
	C25.1,5.5,4.9,25.7,4.9,50.6S25.1,95.7,50,95.7s45.1-20.2,45.1-45.1S74.9,5.5,50,5.5z M52.1,20.6l-5,1.8L44,25.7l0.9,3.9l3.7,0.6
	l1.8,3.7l11.3-1.8l4.8,2.9l-9.9,5.7l-5.4-0.6l-5.9,1l-5.8,8.3l-8.2,1.2L30,57.8l3.5,0.8l-1,4.5l-8.2-1.6l-7.4,1.6l-1.7,4.2l1.3,8.8
	l4.5,2.1h7.4l4.9-0.4l1.7-4l7.8-10l5.1,1l5-4.5l1,3.5l12.6,8.4L65,74.3l-5.5-0.2c0,0,1.4,2.4,2,3c0.6,0.7,2.7,0.9,3.5,0.9
	c1.1,0,4.1-1.7,4.1-1.7v-4.9l1.9-0.8l-1.4-1.5l-8.5-4.7L58.9,58h6.9l2.3,2.3l6,5.1l0.2,6.2c0,0,6.4-0.2,7.8-1.7
	c2.1-2,2.3-11.3,2.3-11.3s2.2-11.9,1.4-16.9c-1.6-8.2-11.7-24.4-11.7-24.4s-6.4-4.6-8.9-4.4C61.3,12.9,52.1,20.6,52.1,20.6
	L52.1,20.6z"/>
</svg>
