<svg width="50" height="50" viewBox="0 0 50 50" fill="none" xmlns="http://www.w3.org/2000/svg">
<path d="M25 50C11.2 50 0 38.8 0 25C0 11.2 11.2 0 25 0C38.8 0 50 11.2 50 25C50 38.8 38.8 50 25 50ZM25 2.45C12.55 2.45 2.45 12.55 2.45 25C2.45 37.45 12.55 47.55 25 47.55C37.45 47.55 47.55 37.45 47.55 25C47.55 12.55 37.45 2.45 25 2.45ZM26.05 10L23.55 10.9L22 12.55L22.45 14.5L24.3 14.8L25.2 16.65L30.85 15.75L33.25 17.2L28.3 20.05L25.6 19.75L22.65 20.25L19.75 24.4L15.65 25L15 28.6L16.75 29L16.25 31.25L12.15 30.45L8.45 31.25L7.6 33.35L8.25 37.75L10.5 38.8H14.2L16.65 38.6L17.5 36.6L21.4 31.6L23.95 32.1L26.45 29.85L26.95 31.6L33.25 35.8L32.5 36.85L29.75 36.75C29.75 36.75 30.45 37.95 30.75 38.25C31.05 38.6 32.1 38.7 32.5 38.7C33.05 38.7 34.55 37.85 34.55 37.85V35.4L35.5 35L34.8 34.25L30.55 31.9L29.45 28.7H32.9L34.05 29.85L37.05 32.4L37.15 35.5C37.15 35.5 40.35 35.4 41.05 34.65C42.1 33.65 42.2 29 42.2 29C42.2 29 43.3 23.05 42.9 20.55C42.1 16.45 37.05 8.35 37.05 8.35C37.05 8.35 33.85 6.05 32.6 6.15C30.65 6.15 26.05 10 26.05 10Z" fill="#FF4747"/>
</svg>
